<svg xmlns="http://www.w3.org/2000/svg" fill="none" viewBox="0 0 20 20" class="size-5 shrink-0 text-ln-gray-400 transition ease-linear"><path stroke="currentColor" stroke-linecap="square" stroke-linejoin="round" stroke-width="1.25" d="m6.496 10-3.74 1.861a.843.843 0 0 0 0 1.507l6.874 3.42a.83.83 0 0 0 .739 0l6.874-3.42a.843.843 0 0 0 0-1.507L13.503 10m-7.007 0-3.74-1.861a.843.843 0 0 1 0-1.507l6.874-3.42a.83.83 0 0 1 .739 0l6.874 3.42a.843.843 0 0 1 0 1.507L13.503 10m-7.007 0 3.134 1.56a.83.83 0 0 0 .739 0L13.502 10"/></svg>